# xmcd
#
# Track frame offsets:
# 150
# 21833
# 39927
# 58995
# 81687
#
# Disc length: 1366 seconds
#
# Revision: 0
# Processed by: cddbd v1.5.1PL0 Copyright (c) Steve Scherf et al.
# Submitted via: Audion 3.0.2 (http://www.panic.com/audion/)
#
DISCID=3f055405
DTITLE=Seven Sisters - Faces on Film
DYEAR=1900
DGENRE=
TTITLE0=Makers of Medicine
TTITLE1=Comfortable in Water
TTITLE2=Beginners
TTITLE3=Make Nice
TTITLE4=Extension 117
EXTD=
EXTT0=
EXTT1=
EXTT2=
EXTT3=
EXTT4=
PLAYORDER=
